<svg xmlns="http://www.w3.org/2000/svg" width="48" height="48" viewBox="0 0 48 48"><g transform="translate(4105.559 -1859.968) scale(1.07865)"><path style="line-height:normal;text-indent:0;text-align:start;text-decoration-line:none;text-decoration-style:solid;text-decoration-color:#000;text-transform:none;block-progression:tb;white-space:normal;isolation:auto;mix-blend-mode:normal;solid-color:#000;solid-opacity:1" fill="#3b4347" fill-rule="evenodd" d="m -3783.9453,1725.997 3.8691,2.58 -7.7383,0 3.8692,-2.58 z" color="#000" enable-background="accumulate" font-family="sans-serif" font-weight="400" overflow="visible"/><path style="line-height:normal;text-indent:0;text-align:start;text-decoration-line:none;text-decoration-style:solid;text-decoration-color:#000;text-transform:none;block-progression:tb;white-space:normal;isolation:auto;mix-blend-mode:normal;solid-color:#000;solid-opacity:1" fill="#d25a3f" fill-rule="evenodd" d="m -3799.1953,725.71484 0,17.05078 6.5351,6.07813 17.42,-0.01 6.5449,-6.07812 0,-17.04102 -30.5,0 z m 15.25,3.55274 2.8633,2.29101 -0.502,0 -4.7207,0 -0.5039,0 2.8633,-2.29101 z m -1.6387,3.79101 3.2793,0 2.7988,3.5 -8.8789,0 2.8008,-3.5 z m -1,5 5.2793,0 2.7988,3.5 -10.8789,0 2.8008,-3.5 z m 1.8887,4.26368 1.5,0 0,2.9707 -1.5,0 0,-2.9707 z" color="#000" enable-background="accumulate" font-family="sans-serif" font-weight="400" overflow="visible" transform="translate(0 1004.362)"/><path style="line-height:normal;text-indent:0;text-align:start;text-decoration-line:none;text-decoration-style:solid;text-decoration-color:#000;text-transform:none;block-progression:tb;white-space:normal;isolation:auto;mix-blend-mode:normal;solid-color:#000;solid-opacity:1" fill="#3b4347" fill-rule="evenodd" d="M-3767.1953 1737.4013l5.0664 3.6191-5.0664 4.7051 0-8.3242zM-3800.6953 1737.4032l0 8.3301-5.0664-4.7109 5.0664-3.6192zM-3761.6953 1742.6649l0 23.4688-12.1699-12.1699 12.1699-11.2989zM-3806.1953 1742.6669l12.1601 11.3086-12.1601 12.1601 0-23.4687zM-3775.2559 1754.6942l12.5 12.5-42.3769 0 12.4883-12.4882 17.3886-.012z" color="#000" enable-background="accumulate" font-family="sans-serif" font-weight="400" overflow="visible"/></g></svg>