<svg xmlns="http://www.w3.org/2000/svg" enable-background="new 0 0 66 66" viewBox="0 0 66 66"><path d="M7.94,44.51v6.22l4.17,0.85c0.27,0.91,0.63,1.79,1.09,2.63l-2.35,3.55l4.4,4.4l3.55-2.35c0.84,0.45,1.72,0.82,2.62,1.09
		l0.85,4.18h6.22l0.85-4.17c0.92-0.28,1.8-0.64,2.63-1.09l3.55,2.35l4.4-4.4l-2.35-3.55c0.45-0.84,0.82-1.72,1.09-2.63l4.17-0.85
		v-6.22l-4.17-0.85c-0.27-0.91-0.63-1.79-1.09-2.63l2.35-3.55l-4.4-4.4l-3.55,2.35c-0.83-0.45-1.71-0.81-2.63-1.09l-0.85-4.18h-6.22
		l-0.85,4.18c-0.9,0.27-1.78,0.63-2.62,1.09l-3.55-2.35l-4.4,4.4l2.35,3.55c-0.45,0.84-0.82,1.72-1.09,2.63L7.94,44.51z
		 M13.42,37.75l2.09-2.09l3.22,2.14l0.54-0.32c1.02-0.61,2.12-1.07,3.25-1.34l0.62-0.15l0.77-3.8h2.95l0.77,3.79l0.61,0.15
		c1.16,0.29,2.26,0.75,3.25,1.35l0.54,0.33l3.23-2.14l2.09,2.09l-2.13,3.22l0.32,0.54c0.61,1.02,1.06,2.12,1.34,3.25l0.15,0.62
		l3.8,0.77v2.95l-3.8,0.77l-0.15,0.62c-0.28,1.14-0.73,2.23-1.34,3.25l-0.32,0.54l2.13,3.22l-2.09,2.09l-3.23-2.14l-0.54,0.33
		c-0.99,0.6-2.09,1.05-3.25,1.35l-0.61,0.15l-0.77,3.79h-2.95l-0.77-3.8l-0.61-0.15c-1.13-0.28-2.22-0.73-3.25-1.34l-0.54-0.32
		l-3.22,2.14l-2.09-2.09l2.13-3.22l-0.32-0.54c-0.61-1.02-1.06-2.12-1.34-3.25l-0.15-0.62l-3.8-0.77v-2.95l3.8-0.77l0.15-0.62
		c0.28-1.14,0.73-2.23,1.34-3.25l0.32-0.54L13.42,37.75z"/><path d="M25.39 54.75c3.93 0 7.12-3.2 7.12-7.12s-3.2-7.12-7.12-7.12-7.12 3.2-7.12 7.12S21.46 54.75 25.39 54.75zM25.39 42.5c2.83 0 5.12 2.3 5.12 5.12s-2.3 5.12-5.12 5.12-5.12-2.3-5.12-5.12S22.56 42.5 25.39 42.5zM23.8 18.41l1.1 5.96 4.11.03c.42.81.91 1.56 1.47 2.26l-1.61 3.82 5 3.4 2.96-2.9c.86.27 1.74.45 2.64.54l1.54 3.81 5.95-1.17.07-4.13c.81-.43 1.58-.93 2.28-1.51l3.79 1.58 3.42-5.04-2.85-2.94c.28-.88.47-1.78.57-2.68l3.81-1.58-1.1-5.96-4.11-.03c-.42-.81-.91-1.56-1.48-2.26l1.61-3.82-5-3.4-2.96 2.9c-.86-.27-1.74-.45-2.64-.54l-1.54-3.81L34.88 2.1l-.07 4.13c-.8.42-1.57.93-2.28 1.51l-3.79-1.57-3.42 5.04 2.86 2.94c-.28.86-.47 1.76-.57 2.67L23.8 18.41zM27.89 10.98l1.59-2.34 3.43 1.43.47-.42c.87-.78 1.83-1.41 2.84-1.88l.57-.26.06-3.75 2.74-.54 1.39 3.45.64.03c1.14.06 2.25.29 3.3.67l.59.22 2.68-2.63 2.29 1.56-1.46 3.46.42.47c.75.84 1.37 1.79 1.84 2.82l.26.58 3.72.03.51 2.75-3.46 1.44-.04.63c-.07 1.12-.3 2.25-.71 3.34l-.22.59 2.59 2.66-1.59 2.34-3.44-1.43-.47.43c-.84.76-1.79 1.39-2.83 1.88l-.56.27L45 32.51l-2.74.54-1.39-3.45-.64-.03c-1.14-.06-2.25-.29-3.3-.67l-.59-.22-2.68 2.63-2.29-1.56 1.46-3.46-.42-.47c-.75-.83-1.37-1.79-1.84-2.82l-.26-.58-3.72-.03-.51-2.75 3.46-1.44.04-.62c.07-1.15.31-2.27.71-3.33l.22-.59L27.89 10.98z"/><path d="M37.02,23.88c1.17,0.8,2.51,1.18,3.83,1.18c2.22,0,4.42-1.07,5.77-3.06c2.16-3.17,1.36-7.49-1.78-9.62
		c-3.14-2.13-7.45-1.29-9.6,1.88C33.08,17.43,33.88,21.75,37.02,23.88z M36.89,15.38c0.96-1.42,2.53-2.19,4.11-2.19
		c0.94,0,1.88,0.27,2.71,0.83c2.23,1.51,2.79,4.58,1.25,6.84c-1.54,2.26-4.6,2.87-6.82,1.35C35.92,20.71,35.35,17.64,36.89,15.38z"/></svg>