<svg xmlns="http://www.w3.org/2000/svg" width="24" height="24"><path fill="none" d="M0 0h24v24H0Z" data-name="Path 3619"/><path fill="#525863" d="M12.6 4.203v1.011a1.8 1.8 0 0 0 1.2 1.7 5.413 5.413 0 0 1 .527.217 1.8 1.8 0 0 0 2.049-.351l.715-.714.849.848-.715.715a1.8 1.8 0 0 0-.351 2.049 5.391 5.391 0 0 1 .217.527 1.8 1.8 0 0 0 1.7 1.2H19.8v1.2h-1.011a1.8 1.8 0 0 0-1.7 1.2 5.363 5.363 0 0 1-.217.526 1.8 1.8 0 0 0 .351 2.051l.714.714-.849.848-.714-.714a1.8 1.8 0 0 0-2.048-.352 5.43 5.43 0 0 1-.527.218 1.8 1.8 0 0 0-1.2 1.7v1.007H11.4v-1.011a1.8 1.8 0 0 0-1.2-1.7 5.353 5.353 0 0 1-.525-.216 1.8 1.8 0 0 0-2.051.35l-.715.714-.849-.848.715-.714a1.8 1.8 0 0 0 .352-2.049 5.572 5.572 0 0 1-.218-.528 1.8 1.8 0 0 0-1.7-1.2H4.2v-1.198h1.011a1.8 1.8 0 0 0 1.7-1.2 5.406 5.406 0 0 1 .217-.526 1.8 1.8 0 0 0-.351-2.05l-.714-.714.848-.849.714.715a1.8 1.8 0 0 0 2.05.351 5.38 5.38 0 0 1 .526-.217 1.8 1.8 0 0 0 1.2-1.7v-1.01h1.2m0-1.8H11.4a1.8 1.8 0 0 0-1.8 1.8v1.011a7.1 7.1 0 0 0-.7.291l-.714-.715a1.8 1.8 0 0 0-2.545 0l-.849.849a1.8 1.8 0 0 0 0 2.546l.715.714a7.107 7.107 0 0 0-.291.7H4.2a1.8 1.8 0 0 0-1.8 1.804v1.2a1.8 1.8 0 0 0 1.8 1.8h1.011a7.164 7.164 0 0 0 .291.7l-.715.714a1.8 1.8 0 0 0 0 2.546l.849.848a1.8 1.8 0 0 0 2.546 0l.715-.714a7.046 7.046 0 0 0 .7.291v1.015a1.8 1.8 0 0 0 1.8 1.8h1.2a1.8 1.8 0 0 0 1.8-1.8v-1.011a7.183 7.183 0 0 0 .7-.29l.715.715a1.8 1.8 0 0 0 2.546 0l.848-.849a1.8 1.8 0 0 0 0-2.546l-.715-.714a7.113 7.113 0 0 0 .291-.7H19.8a1.8 1.8 0 0 0 1.8-1.8v-1.205a1.8 1.8 0 0 0-1.8-1.8h-1.011a7.157 7.157 0 0 0-.291-.7l.715-.715a1.8 1.8 0 0 0 0-2.546l-.849-.848a1.8 1.8 0 0 0-2.546 0l-.715.714a7.185 7.185 0 0 0-.7-.291V4.203a1.8 1.8 0 0 0-1.803-1.8Zm-.6 7.5a2.1 2.1 0 1 1-2.1 2.1 2.1 2.1 0 0 1 2.1-2.1m0-1.8a3.9 3.9 0 1 0 3.9 3.9A3.9 3.9 0 0 0 12 8.103Z" data-name="Shape 23"/></svg>