<svg xmlns="http://www.w3.org/2000/svg" width="24" height="24" fill="none" viewBox="0 0 24 24"><path fill="#8BC94D" fill-rule="evenodd" d="M2 12.75C1.58579 12.75 1.25 13.0858 1.25 13.5V19.5C1.25 19.9142 1.58579 20.25 2 20.25H5C5.41421 20.25 5.75 19.9142 5.75 19.5V13.5C5.75 13.0858 5.41421 12.75 5 12.75H2zM7.5 9.75C7.08579 9.75 6.75 10.0858 6.75 10.5V19.5C6.75 19.9142 7.08579 20.25 7.5 20.25H10.5C10.9142 20.25 11.25 19.9142 11.25 19.5V10.5C11.25 10.0858 10.9142 9.75 10.5 9.75H7.5zM13.5 6.75C13.0858 6.75 12.75 7.08579 12.75 7.5V19.5C12.75 19.9142 13.0858 20.25 13.5 20.25H16.5C16.9142 20.25 17.25 19.9142 17.25 19.5V7.5C17.25 7.08579 16.9142 6.75 16.5 6.75H13.5zM19 3.75C18.5858 3.75 18.25 4.08579 18.25 4.5V19.5C18.25 19.9142 18.5858 20.25 19 20.25H22C22.4142 20.25 22.75 19.9142 22.75 19.5V4.5C22.75 4.08579 22.4142 3.75 22 3.75H19z" clip-rule="evenodd"/><path fill="#000" fill-rule="evenodd" d="M1.25 13.5C1.25 13.0858 1.58579 12.75 2 12.75H5C5.41421 12.75 5.75 13.0858 5.75 13.5V19.5C5.75 19.9142 5.41421 20.25 5 20.25H2C1.58579 20.25 1.25 19.9142 1.25 19.5V13.5zM2.75 14.25V18.75H4.25V14.25H2.75zM6.75 10.5C6.75 10.0858 7.08579 9.75 7.5 9.75H10.5C10.9142 9.75 11.25 10.0858 11.25 10.5V19.5C11.25 19.9142 10.9142 20.25 10.5 20.25H7.5C7.08579 20.25 6.75 19.9142 6.75 19.5V10.5zM8.25 11.25V18.75H9.75V11.25H8.25zM12.75 7.5C12.75 7.08579 13.0858 6.75 13.5 6.75H16.5C16.9142 6.75 17.25 7.08579 17.25 7.5V19.5C17.25 19.9142 16.9142 20.25 16.5 20.25H13.5C13.0858 20.25 12.75 19.9142 12.75 19.5V7.5zM14.25 8.25V18.75H15.75V8.25H14.25zM18.25 4.5C18.25 4.08579 18.5858 3.75 19 3.75H22C22.4142 3.75 22.75 4.08579 22.75 4.5V19.5C22.75 19.9142 22.4142 20.25 22 20.25H19C18.5858 20.25 18.25 19.9142 18.25 19.5V4.5zM19.75 5.25V18.75H21.25V5.25H19.75z" clip-rule="evenodd"/></svg>